<svg width="50" height="50" viewBox="0 0 50 50" fill="none" xmlns="http://www.w3.org/2000/svg">
<path fill-rule="evenodd" clip-rule="evenodd" d="M9.462 14.8069L19.9591 4.81266C22.4976 2.39578 26.5023 2.39578 29.0408 4.81266L39.5379 14.8069H45.6131C47.0654 14.8069 48.181 16.0848 47.9756 17.5132L44.4699 41.8931C43.966 45.3972 40.9453 48 37.3824 48H11.6176C8.05468 48 5.03397 45.3972 4.53011 41.8931L1.02443 17.5131C0.819049 16.0848 1.93463 14.8069 3.38692 14.8069H9.462ZM22.4359 7.38034C23.5898 6.28176 25.4101 6.28176 26.564 7.38034L34.3642 14.8069H14.6357L22.4359 7.38034ZM4.76273 18.3633L8.07383 41.3901C8.32577 43.1422 9.83612 44.4436 11.6176 44.4436H37.3824C39.1639 44.4436 40.6742 43.1422 40.9262 41.3902L44.2373 18.3633H4.76273Z" fill="black"/>
<path fill-rule="evenodd" clip-rule="evenodd" d="M15.5 25C16.3284 25 17 25.7937 17 26.7727V36.2273C17 37.2063 16.3284 38 15.5 38C14.6716 38 14 37.2063 14 36.2273V26.7727C14 25.7937 14.6716 25 15.5 25Z" fill="black"/>
<path fill-rule="evenodd" clip-rule="evenodd" d="M24.5 25C25.3284 25 26 25.7937 26 26.7727V36.2273C26 37.2063 25.3284 38 24.5 38C23.6716 38 23 37.2063 23 36.2273V26.7727C23 25.7937 23.6716 25 24.5 25Z" fill="black"/>
<path fill-rule="evenodd" clip-rule="evenodd" d="M33.5 25C34.3284 25 35 25.7937 35 26.7727V36.2273C35 37.2063 34.3284 38 33.5 38C32.6716 38 32 37.2063 32 36.2273V26.7727C32 25.7937 32.6716 25 33.5 25Z" fill="black"/>
</svg>
